<svg width="16" height="16" viewBox="0 0 16 16" fill="none" xmlns="http://www.w3.org/2000/svg">
<g clip-path="url(#clip0_104_8)">
<rect width="16" height="16" fill="black"/>
<path d="M5.0957 3.87598C5.15822 3.88011 5.2111 3.90503 5.25391 3.9375C5.33401 3.9983 5.39138 4.09517 5.43359 4.17773C5.56308 4.43111 5.67707 4.68315 5.80957 4.91309C5.86298 4.89509 5.91869 4.8744 5.97656 4.84961C6.06356 4.81235 6.16058 4.76816 6.25684 4.73438C6.64115 4.59923 7.02839 4.48329 7.41992 4.3877L7.7207 4.31836C9.23598 3.99764 10.9364 4.01349 12.3896 4.73633C12.779 4.93017 13.1503 5.20387 13.4717 5.55664C13.6424 5.744 13.7897 5.9722 13.9082 6.21387C13.9994 6.40012 14.0698 6.60363 14.1191 6.81445V6.81543C14.47 8.32249 13.6173 9.72448 12.7861 10.5244C12.3716 10.9235 11.9159 11.2686 11.4443 11.5371L10.8994 11.8262C10.8504 11.8523 10.7958 11.8751 10.7568 11.8926C10.7528 11.8944 10.749 11.8966 10.7451 11.8984C10.8343 12.0614 10.9316 12.2207 11.0371 12.374L11.4336 12.915L11.6621 13.2129C12.2032 13.9045 12.7992 14.5552 13.4805 14.8564C13.6958 14.9516 13.9025 15.0119 14.1094 14.999C14.6901 14.9625 15.1071 14.3904 15.2305 13.5469L15.2617 13.2383C15.2799 12.9295 15.2634 12.6189 15.252 12.293C15.2508 12.2591 15.2636 12.2256 15.2871 12.2012C15.3106 12.1769 15.3432 12.1632 15.377 12.1631H15.9834L16.0293 12.1719C16.0728 12.1892 16.1041 12.2309 16.1074 12.2803C16.1393 12.7588 16.128 13.4494 16.0664 13.9258C16.0331 14.1834 15.9793 14.4406 15.8984 14.6836L15.8086 14.9219C15.5558 15.5102 15.1635 15.8658 14.7119 16.0254C14.2633 16.1839 13.77 16.1439 13.3184 15.9688C12.578 15.6813 11.925 15.1098 11.3486 14.4287C10.7934 13.7725 10.3026 13.0056 9.86719 12.2725C9.82152 12.2875 9.77613 12.3033 9.73047 12.3184C9.69913 12.3287 9.66708 12.3383 9.63574 12.3486C9.92442 12.9202 10.2123 13.492 10.501 14.0635C10.8113 14.678 11.1222 15.2927 11.4326 15.9072C11.4519 15.9457 11.4501 15.9915 11.4277 16.0283C11.4051 16.0652 11.3645 16.0877 11.3213 16.0879H10.5654C10.5188 16.0878 10.4765 16.0619 10.4551 16.0205C9.86461 14.8802 9.27306 13.7406 8.68262 12.6006C8.51418 12.6429 8.34559 12.6913 8.1748 12.7412C7.97277 12.8003 7.76665 12.8612 7.55957 12.9121C6.3731 13.2036 5.16286 13.4147 3.94043 13.3438C3.4457 13.3149 2.95165 13.2311 2.46777 13.0791C2.38363 13.0528 2.30147 13.0201 2.22461 12.9893C2.18384 12.9729 2.14411 12.958 2.10547 12.9434C1.8976 13.4364 1.69029 13.9297 1.48242 14.4229C1.25912 14.9526 1.03581 15.483 0.8125 16.0127C0.792885 16.0588 0.747404 16.0889 0.697266 16.0889H0C-0.0367399 16.0889 -0.0719557 16.0729 -0.0957031 16.0449C-0.119454 16.0168 -0.129234 15.9787 -0.123047 15.9424C-0.109546 15.8635 -0.0846823 15.7936 -0.0585938 15.7314C-0.045613 15.7005 -0.0311785 15.6698 -0.0185547 15.6416C-0.00563898 15.6128 0.00669469 15.5858 0.0175781 15.5586C0.103241 15.3449 0.189754 15.1301 0.28125 14.9189C0.539369 14.3224 0.784004 13.7126 1.03125 13.1045C1.87873 11.0191 2.75134 8.95006 3.61035 6.875C3.9046 6.16413 4.20345 5.46793 4.49512 4.75781C4.56951 4.57667 4.64389 4.39317 4.7207 4.21191C4.73588 4.17611 4.75809 4.11571 4.78223 4.06934C4.80869 4.01851 4.8492 3.95976 4.91699 3.9209C4.97318 3.88887 5.03333 3.87188 5.0957 3.87598ZM3.82812 8.76855C3.38033 9.84279 2.93217 10.9169 2.48438 11.9912C2.63104 12.0616 2.79764 12.1021 2.9707 12.1455H2.97168C3.36339 12.244 3.76003 12.2941 4.16016 12.3047C5.10369 12.3298 6.04227 12.1841 6.98145 11.9746C7.39858 11.8814 7.81447 11.796 8.21289 11.6611C8.1602 11.546 8.09289 11.4364 8.02539 11.3086C7.87082 11.0156 7.71862 10.7173 7.56934 10.4199C7.04567 9.37598 6.50188 8.35592 5.96973 7.31543C5.74992 6.88571 5.52913 6.45709 5.30762 6.0293C5.28771 5.99078 5.26361 5.93942 5.23828 5.88574C5.21241 5.83092 5.1846 5.77169 5.15625 5.71484C5.14611 5.6945 5.13495 5.67525 5.125 5.65625C4.69258 6.69367 4.26055 7.7312 3.82812 8.76855ZM11.1289 5.52832C10.0073 5.23158 8.83695 5.23449 7.7041 5.46973C7.23175 5.5676 6.7621 5.6769 6.31348 5.85742C7.25353 7.70003 8.19295 9.54287 9.13281 11.3857C9.25344 11.3614 9.40159 11.3131 9.55664 11.252C9.74652 11.177 9.93565 11.0896 10.085 11.0225C11.0345 10.5948 11.9801 10.0433 12.6768 9.0791C13.1459 8.4296 13.4568 7.48485 13 6.72656C12.6368 6.1241 11.9769 5.79034 11.3799 5.60059L11.1289 5.52832Z" fill="white" stroke="white" stroke-width="0.25" stroke-linejoin="round"/>
</g>
<defs>
<clipPath id="clip0_104_8">
<rect width="16" height="16" fill="white"/>
</clipPath>
</defs>
</svg>
