<svg width="64" height="64" viewBox="0 0 64 64" fill="none" xmlns="http://www.w3.org/2000/svg">
<g clip-path="url(#clip0_104_4)">
<rect width="64" height="64" fill="black"/>
<path d="M20.3584 17.877C20.5189 17.8871 20.6619 17.9474 20.7881 18.0391C21.0351 18.2187 21.2305 18.5251 21.3984 18.8398C21.9507 19.8754 22.4538 20.9673 23.0605 21.9277C23.3908 21.8444 23.7212 21.7203 24.0557 21.583C24.416 21.4351 24.7855 21.2737 25.1553 21.1494C26.6816 20.6351 28.2166 20.1925 29.7695 19.8291C36.0714 18.3529 43.295 18.2337 49.3877 21.1377H49.3887C50.9057 21.8613 52.3539 22.8851 53.6084 24.2051C54.2631 24.8936 54.8327 25.7381 55.2949 26.6416C55.603 27.2443 55.8514 27.8971 56.0371 28.5771L56.1123 28.8701C57.4743 34.4739 54.1658 39.7287 50.8838 42.7559C49.2455 44.2674 47.4472 45.5735 45.5898 46.5869C44.8724 46.9786 44.1385 47.3259 43.4199 47.6904L43.4189 47.6895C43.238 47.7817 43.0477 47.8559 42.874 47.9307C42.7312 47.9921 42.5953 48.0573 42.4668 48.1377C43.2954 49.6692 44.3972 51.0726 45.4326 52.3867C47.8292 55.43 50.5505 58.5775 53.7666 59.9404C54.6507 60.3149 55.5436 60.5723 56.46 60.5176C59.0655 60.3613 60.7928 57.9229 61.293 54.6465C61.5398 53.0279 61.4444 51.4294 61.3838 49.7764C61.3825 49.7424 61.3954 49.709 61.4189 49.6846C61.4424 49.6602 61.475 49.6466 61.5088 49.6465H63.9316C63.9972 49.6465 64.052 49.6973 64.0566 49.7627C64.1829 51.5785 64.1374 54.2026 63.8945 56.0029C63.7198 57.2983 63.403 58.5806 62.8877 59.7295C61.9119 61.9058 60.4166 63.1906 58.7217 63.7646C57.0299 64.3376 55.1515 64.1981 53.4102 63.5508C50.5326 62.4799 47.9696 60.3412 45.6826 57.751C43.4166 55.1844 41.4143 52.1664 39.6377 49.2861C39.3589 49.374 39.0805 49.4629 38.8018 49.5508C38.5393 49.6335 38.2762 49.7161 38.0137 49.7988C39.2321 52.1106 40.4507 54.4219 41.6689 56.7334C42.9104 59.0889 44.1519 61.445 45.3936 63.8008C45.414 63.8395 45.4133 63.8863 45.3906 63.9238C45.368 63.9613 45.327 63.9844 45.2832 63.9844H42.2627C42.2169 63.9844 42.1742 63.9592 42.1523 63.9189C39.7453 59.4642 37.3387 55.0093 34.9316 50.5557C34.1504 50.7348 33.3723 50.9503 32.5918 51.1689C31.7816 51.3959 30.9679 51.6256 30.1494 51.8184C25.4164 52.9328 20.6176 53.7348 15.7832 53.4658C13.833 53.3568 11.8893 53.0385 9.98633 52.4658C9.66578 52.3699 9.34994 52.249 9.04004 52.1299C8.7636 52.0237 8.49053 51.9209 8.2168 51.833C7.33897 53.8284 6.46182 55.8247 5.58398 57.8203C4.69081 59.8508 3.79844 61.8819 2.90527 63.9121C2.88527 63.9574 2.83953 63.9863 2.79004 63.9863H0C-0.0369813 63.9863 -0.0719529 63.9698 -0.0957031 63.9414C-0.119335 63.9132 -0.129371 63.8761 -0.123047 63.8398C-0.0756933 63.5736 0.0143661 63.3325 0.114258 63.1045C0.164044 62.9909 0.217122 62.8786 0.268555 62.7686C0.320259 62.6579 0.370552 62.5486 0.416992 62.4375C0.759307 61.619 1.10679 60.8008 1.4707 59.9961C2.50566 57.7039 3.48533 55.3597 4.47363 53.0303C7.86298 45.0378 11.3508 37.1126 14.7881 29.1553C15.9606 26.4407 17.1613 23.7569 18.3262 21.0391C18.6245 20.3429 18.923 19.6423 19.2295 18.9492C19.3028 18.7834 19.3749 18.5899 19.4629 18.4277C19.5536 18.2608 19.6722 18.1042 19.8545 18.0039H19.8555C20.0306 17.9082 20.198 17.8668 20.3584 17.877ZM14.9668 36.1455C13.1318 40.3641 11.2969 44.5829 9.46191 48.8018C10.1707 49.2017 11.0103 49.3796 11.792 49.5674C13.3894 49.9525 15.0052 50.1474 16.6318 50.1885C20.4506 50.2858 24.2386 49.7224 28.0098 48.916C29.7928 48.5344 31.6176 48.1866 33.3516 47.585C33.1797 47.1383 32.9384 46.7241 32.6953 46.3076L32.4336 45.8516C31.8166 44.7307 31.2089 43.59 30.6123 42.4512C28.5181 38.4503 26.3384 34.5298 24.2148 30.5508C23.3352 28.9027 22.4518 27.2597 21.5654 25.6191C21.4894 25.4783 21.3956 25.2876 21.293 25.0791C21.1898 24.8696 21.0774 24.6399 20.9619 24.418C20.8463 24.1959 20.7285 23.9837 20.6172 23.8076C20.5544 23.7083 20.4951 23.6244 20.4414 23.5576C18.6163 27.7537 16.7919 31.9497 14.9668 36.1455ZM44.6123 23.5146C40.0619 22.361 35.3213 22.3755 30.7402 23.2871C28.719 23.6885 26.6788 24.1419 24.7363 24.9385C28.5993 32.1947 32.4621 39.4507 36.3242 46.708C36.897 46.6356 37.6266 46.4068 38.3643 46.1279C39.1353 45.8364 39.904 45.4968 40.4971 45.2412C44.3186 43.5916 48.1687 41.4449 51.0117 37.6738C52.9181 35.1446 54.265 31.3617 52.3223 28.2715C50.584 25.5077 47.2491 24.1827 44.6133 23.5146H44.6123Z" fill="white" stroke="white" stroke-width="0.25" stroke-linejoin="round"/>
</g>
<defs>
<clipPath id="clip0_104_4">
<rect width="64" height="64" fill="white"/>
</clipPath>
</defs>
</svg>
