<svg width="32" height="32" viewBox="0 0 32 32" fill="none" xmlns="http://www.w3.org/2000/svg">
<g clip-path="url(#clip0_104_6)">
<rect width="32" height="32" fill="black"/>
<path d="M10.1836 7.87598C10.2791 7.88232 10.3621 7.92016 10.4326 7.97363C10.5682 8.07651 10.6708 8.24774 10.7549 8.41211C11.0258 8.9422 11.2705 9.48998 11.5615 9.97852C11.7059 9.93668 11.8517 9.87882 12.002 9.81445C12.1801 9.73817 12.3681 9.65272 12.5557 9.58691C13.3206 9.31791 14.0905 9.08661 14.8691 8.89648C18.0287 8.12416 21.6579 8.05968 24.7227 9.58398C25.4882 9.965 26.2191 10.5038 26.8516 11.1982C27.1835 11.5625 27.4712 12.0082 27.7041 12.4834C27.8822 12.847 28.0205 13.2445 28.1172 13.6582C28.8047 16.6101 27.1346 19.3716 25.4863 20.958C24.664 21.7497 23.7606 22.4343 22.8271 22.9658C22.4674 23.1708 22.0973 23.3539 21.7402 23.543C21.6473 23.5924 21.5476 23.6324 21.4639 23.6699C21.4109 23.6937 21.3614 23.719 21.3145 23.7461C21.7231 24.5211 22.2589 25.2339 22.7666 25.9062C23.9663 27.4959 25.3191 29.1247 26.9102 29.8281C27.3481 30.0217 27.7829 30.1515 28.2256 30.124C29.4803 30.0455 30.3357 28.8158 30.585 27.1123C30.7075 26.2741 30.6602 25.4457 30.6299 24.5811C30.6287 24.5472 30.6415 24.5137 30.665 24.4893C30.6886 24.4651 30.7212 24.4512 30.7549 24.4512H31.9658C32.0316 24.4512 32.0864 24.5027 32.0908 24.5684C32.1542 25.5188 32.1308 26.8914 32.0088 27.835C31.921 28.5143 31.7621 29.1884 31.502 29.7939C31.0085 30.9424 30.2492 31.6274 29.3828 31.9336C28.5193 32.2388 27.5635 32.1633 26.6816 31.8213C25.2288 31.2571 23.9394 30.1322 22.793 28.7773C21.6674 27.4471 20.6725 25.8861 19.79 24.3955C19.6669 24.436 19.544 24.4771 19.4209 24.5176C19.3116 24.5535 19.2021 24.5891 19.0928 24.625C19.6919 25.8111 20.2916 26.9967 20.8906 28.1826C21.5113 29.4116 22.1321 30.641 22.7529 31.8701C22.7725 31.9089 22.7708 31.9552 22.748 31.9922C22.7253 32.029 22.6849 32.0518 22.6416 32.0518H21.1309C21.0844 32.0516 21.042 32.0255 21.0205 31.9844C19.8245 29.6747 18.6286 27.3648 17.4326 25.0557C17.0601 25.1463 16.6885 25.253 16.3145 25.3623C15.9096 25.4806 15.5008 25.6012 15.0898 25.7021C12.7211 26.2841 10.3144 26.7044 7.8877 26.5635C6.90774 26.5063 5.93059 26.3396 4.97363 26.0391C4.81053 25.9881 4.65072 25.9233 4.49609 25.8613C4.37688 25.8135 4.26028 25.7683 4.14453 25.7275C3.7131 26.7508 3.28202 27.7744 2.85059 28.7979C2.40398 29.8573 1.95735 30.9173 1.51074 31.9766C1.49121 32.0227 1.44559 32.0526 1.39551 32.0527H0C-0.0368242 32.0527 -0.0719525 32.036 -0.0957031 32.0078C-0.119244 31.9797 -0.129208 31.9424 -0.123047 31.9062C-0.0983012 31.7613 -0.0516593 31.6314 -0.000976562 31.5107C0.0242754 31.4506 0.0515599 31.3911 0.0771484 31.334C0.102984 31.2763 0.127642 31.2199 0.150391 31.1631L0.410156 30.5234C0.497742 30.3108 0.586622 30.0989 0.677734 29.8887C1.19493 28.6934 1.68435 27.4708 2.17871 26.2549C3.87346 22.0847 5.6175 17.949 7.33594 13.7979C7.92286 12.3799 8.5228 10.983 9.10547 9.56445C9.25458 9.20141 9.40323 8.83469 9.55664 8.47266C9.59131 8.39086 9.63039 8.28349 9.67578 8.19629C9.72349 8.10469 9.78953 8.01095 9.89551 7.9502L9.96777 7.91504C10.0398 7.88491 10.112 7.87124 10.1836 7.87598ZM7.54199 17.4893C6.6311 19.6744 5.71949 21.8596 4.80859 24.0449C5.14327 24.2298 5.53424 24.3174 5.91211 24.4121C6.70564 24.6117 7.5085 24.7131 8.31738 24.7344C10.2192 24.7849 12.108 24.4915 13.9912 24.0713C14.864 23.8763 15.7492 23.7 16.5928 23.4014C16.4778 23.1117 16.3137 22.8474 16.1611 22.5586V22.5576C15.8525 21.9725 15.5483 21.3775 15.25 20.7832C14.2028 18.6955 13.1134 16.6519 12.0508 14.5742C11.6111 13.7146 11.1697 12.8577 10.7266 12.002C10.688 11.9273 10.641 11.8262 10.5898 11.7178C10.5382 11.6083 10.4822 11.4891 10.4248 11.374C10.3673 11.2587 10.3093 11.1494 10.2549 11.0596C10.2483 11.0488 10.2406 11.0392 10.2344 11.0293C9.3368 13.1827 8.43957 15.336 7.54199 17.4893ZM22.29 10.9346C20.0258 10.3355 17.6658 10.3436 15.3838 10.8174C14.3942 11.0224 13.4002 11.253 12.4531 11.6504C14.3678 15.4034 16.282 19.1566 18.1963 22.9102C18.4675 22.8677 18.8085 22.7581 19.1582 22.6201C19.5418 22.4688 19.9243 22.2929 20.2217 22.1592C22.1285 21.3003 24.0418 20.1853 25.4541 18.2305C26.4024 16.9177 27.0606 14.9707 26.1074 13.3887C25.2511 11.9678 23.6039 11.282 22.29 10.9346Z" fill="white" stroke="white" stroke-width="0.25" stroke-linejoin="round"/>
</g>
<defs>
<clipPath id="clip0_104_6">
<rect width="32" height="32" fill="white"/>
</clipPath>
</defs>
</svg>
