<svg width="128" height="128" viewBox="0 0 128 128" fill="none" xmlns="http://www.w3.org/2000/svg">
<g clip-path="url(#clip0_101_40)">
<rect width="128" height="128" fill="black"/>
<path d="M40.709 29.8779C41.0036 29.8978 41.2679 30.0167 41.5049 30.2002C41.9734 30.563 42.3525 31.1906 42.6875 31.8594C43.8015 34.0845 44.8259 36.4588 46.0654 38.5312C46.7637 38.3519 47.4574 38.0707 48.1553 37.7656C48.8798 37.4489 49.6127 37.1069 50.3477 36.8438C53.3972 35.749 56.4641 34.8074 59.5664 34.0342C72.1555 30.8928 86.5733 30.6432 98.7256 36.8135C101.747 38.3486 104.631 40.5196 107.129 43.3193C108.428 44.7748 109.56 46.5631 110.479 48.4785C111.178 49.9349 111.724 51.5299 112.104 53.1934C114.811 65.0538 108.237 76.1974 101.686 82.6338C98.4163 85.8469 94.8281 88.623 91.123 90.7764C90.4065 91.1931 89.6828 91.5861 88.958 91.9717L86.7871 93.125C86.4291 93.3196 86.0551 93.4735 85.7012 93.6357C85.3746 93.7854 85.0596 93.9462 84.7627 94.1592C86.4329 97.4811 88.675 100.517 90.7695 103.349C95.5612 109.83 101.022 116.564 107.488 119.482C109.264 120.283 111.068 120.841 112.927 120.723C115.578 120.553 117.77 119.15 119.428 116.911C121.087 114.67 122.209 111.593 122.71 108.096C123.206 104.63 123.014 101.208 122.894 97.6914C122.892 97.6577 122.904 97.6249 122.928 97.6006C122.951 97.5762 122.985 97.5625 123.019 97.5625H127.864L127.911 97.5713C127.954 97.5888 127.986 97.6297 127.989 97.6787C128.241 101.539 128.148 107.12 127.664 110.943C127.316 113.693 126.687 116.409 125.663 118.841C123.726 123.444 120.762 126.154 117.406 127.364C114.053 128.574 110.323 128.282 106.86 126.91C101.132 124.639 96.0237 120.1 91.457 114.591C86.9111 109.106 82.8936 102.651 79.3291 96.4902C78.7418 96.6874 78.1547 96.8849 77.5674 97.082C76.9926 97.275 76.4175 97.4672 75.8428 97.6602C78.3052 102.637 80.7675 107.613 83.2295 112.589C85.7124 117.607 88.1954 122.626 90.6787 127.645C90.6979 127.683 90.6956 127.729 90.6729 127.766C90.65 127.802 90.6096 127.825 90.5664 127.825H84.5244C84.4776 127.825 84.4344 127.799 84.4131 127.757C79.5837 118.236 74.7562 108.715 69.9268 99.1963C68.3308 99.5829 66.743 100.052 65.1523 100.526C63.5309 101.01 61.906 101.5 60.2715 101.91C51.1052 104.209 41.8241 105.881 32.4775 105.463L31.5732 105.416C27.6805 105.184 23.8016 104.507 20.0049 103.29V103.289C19.3689 103.086 18.7424 102.831 18.1221 102.577C17.5362 102.337 16.955 102.101 16.3691 101.905C14.5977 106.194 12.8271 110.485 11.0557 114.774C9.26925 119.1 7.4827 123.427 5.69629 127.752C5.67701 127.799 5.63154 127.829 5.58105 127.829H0C-0.0367503 127.829 -0.0719527 127.813 -0.0957031 127.785C-0.119311 127.757 -0.129082 127.72 -0.123047 127.684C-0.0310832 127.133 0.143963 126.633 0.341797 126.152C0.440589 125.912 0.545109 125.675 0.648438 125.439C0.752079 125.203 0.855009 124.968 0.949219 124.728C1.63367 122.984 2.32676 121.245 3.05371 119.532C5.12462 114.647 7.08422 109.65 9.06055 104.688C15.8391 87.6602 22.8152 70.7773 29.6904 53.8232C32.0335 48.0447 34.4378 42.3212 36.7666 36.5332C37.3635 35.0495 37.9597 33.5577 38.5723 32.082C38.7241 31.7165 38.8623 31.3204 39.0352 30.9814C39.2101 30.6383 39.431 30.3293 39.7666 30.1328H39.7676C40.1015 29.9384 40.4145 29.8581 40.709 29.8779ZM29.8213 68.5996C26.1344 77.6285 22.4467 86.6571 18.7598 95.6865C19.8461 96.3635 21.0915 96.7524 22.3154 97.0742L23.5566 97.3906L24.1582 97.54C27.166 98.2639 30.2047 98.6337 33.2617 98.7158C40.9125 98.9234 48.498 97.7219 56.0449 96.0029C59.6506 95.1808 63.3567 94.4349 66.8721 93.1201C66.4018 91.7506 65.6269 90.5236 64.9756 89.2646C63.7423 86.878 62.5278 84.4499 61.335 82.0244C57.1464 73.5005 52.7835 65.1427 48.5381 56.6689C46.7786 53.1575 45.0122 49.6574 43.2393 46.1621V46.1611C43.0888 45.8641 42.9028 45.4613 42.6973 45.0166C42.491 44.5704 42.264 44.0799 42.0322 43.6055C41.8004 43.1309 41.5644 42.674 41.3389 42.2939C41.1634 41.9983 40.9975 41.7566 40.8496 41.5889C37.1732 50.5927 33.4977 59.5964 29.8213 68.5996ZM89.2549 41.6113C80.1346 39.1481 70.6351 39.1797 61.458 41.125C57.3684 41.99 53.2301 42.9699 49.293 44.709C57.0563 60.2428 64.8184 75.7764 72.5801 91.3125C73.7534 91.1693 75.258 90.6674 76.7695 90.0586C78.3151 89.4361 79.856 88.711 81.041 88.167C88.6905 84.6496 96.4148 80.0647 102.121 72.002C105.944 66.5992 108.681 58.4677 104.749 51.8047C101.244 45.8682 94.531 43.0357 89.2549 41.6113Z" fill="white" stroke="white" stroke-width="0.25" stroke-linejoin="round"/>
</g>
<defs>
<clipPath id="clip0_101_40">
<rect width="128" height="128" fill="white"/>
</clipPath>
</defs>
</svg>
